HIERARCHY
ROOT Hips
{
    OFFSET 0.0 0.0 0.0
    CHANNELS 6 Xposition Yposition Zposition Zrotation Xrotation Yrotation
    JOINT LeftUpLeg
    {
        OFFSET 13.960223090477978 0.0 0.0
        CHANNELS 3 Zrotation Xrotation Yrotation
        JOINT LeftLeg
        {
            OFFSET 0.0 0.0 -55.720430184650915
            CHANNELS 3 Zrotation Xrotation Yrotation
            JOINT LeftFoot
            {
                OFFSET 0.0 0.0 -50.74382570993595
                CHANNELS 3 Zrotation Xrotation Yrotation
                JOINT LeftToeBase
                {
                    OFFSET 0.0 -12.191070327142773 0.0
                    CHANNELS 3 Zrotation Xrotation Yrotation
                    End Site
                    {
                        OFFSET 0 0 0
                    }
                }
            }
        }
    }
    JOINT RightUpLeg
    {
        OFFSET -13.960223090477978 0.0 0.0
        CHANNELS 3 Zrotation Xrotation Yrotation
        JOINT RightLeg
        {
            OFFSET 0.0 0.0 -55.720430184650915
            CHANNELS 3 Zrotation Xrotation Yrotation
            JOINT RightFoot
            {
                OFFSET 0.0 0.0 -50.74382570993595
                CHANNELS 3 Zrotation Xrotation Yrotation
                JOINT RightToeBase
                {
                    OFFSET 0.0 -12.191070327142773 0.0
                    CHANNELS 3 Zrotation Xrotation Yrotation
                    End Site
                    {
                        OFFSET 0 0 0
                    }
                }
            }
        }
    }
    JOINT Spine
    {
        OFFSET 0.0 0.0 11.649880346113044
        CHANNELS 3 Zrotation Xrotation Yrotation
        JOINT Spine1
        {
            OFFSET 0.0 0.0 11.571320960199092
            CHANNELS 3 Zrotation Xrotation Yrotation
            JOINT Spine2
            {
                OFFSET 0.0 0.0 11.571320960199092
                CHANNELS 3 Zrotation Xrotation Yrotation
                JOINT Spine3
                {
                    OFFSET 0.0 0.0 11.571320960199087
                    CHANNELS 3 Zrotation Xrotation Yrotation
                    JOINT Spine4
                    {
                        OFFSET 0.0 0.0 11.571320960199095
                        CHANNELS 3 Zrotation Xrotation Yrotation
                        JOINT RightShoulder
                        {
                            OFFSET -23.445745861824562 0.0 0.0
                            CHANNELS 3 Zrotation Xrotation Yrotation
                            JOINT RightArm
                            {
                                OFFSET -37.670609464394666 0.0 0.0
                                CHANNELS 3 Zrotation Xrotation Yrotation
                                JOINT RightForeArm
                                {
                                    OFFSET -33.79522933680242 0.0 0.0
                                    CHANNELS 3 Zrotation Xrotation Yrotation
                                    JOINT RightHand
                                    {
                                        OFFSET -12.368936754098641 0.0 0.0
                                        CHANNELS 3 Zrotation Xrotation Yrotation
                                        End Site
                                        {
                                            OFFSET 0 0 0
                                        }
                                    }
                                }
                            }
                        }
                        JOINT LeftShoulder
                        {
                            OFFSET 23.445745861824562 0.0 0.0
                            CHANNELS 3 Zrotation Xrotation Yrotation
                            JOINT LeftArm
                            {
                                OFFSET 37.670609464394666 0.0 0.0
                                CHANNELS 3 Zrotation Xrotation Yrotation
                                JOINT LeftForeArm
                                {
                                    OFFSET 33.79522933680242 0.0 0.0
                                    CHANNELS 3 Zrotation Xrotation Yrotation
                                    JOINT LeftHand
                                    {
                                        OFFSET 12.368936754098641 0.0 0.0
                                        CHANNELS 3 Zrotation Xrotation Yrotation
                                        End Site
                                        {
                                            OFFSET 0 0 0
                                        }
                                    }
                                }
                            }
                        }
                        JOINT Neck
                        {
                            OFFSET 0.0 0.0 11.57132100931193
                            CHANNELS 3 Zrotation Xrotation Yrotation
                            JOINT Head
                            {
                                OFFSET 0.0 0.0 26.638800563146496
                                CHANNELS 3 Zrotation Xrotation Yrotation
                                End Site
                                {
                                    OFFSET 0 0 0
                                }
                            }
                        }
                    }
                }
            }
        }
    }
}
MOTION
Frames: 7
Frame Time: 0.03333333333333333
45.92024087905884 -9.724457734823227 430.0386898040772 163.90702828369604 -82.88046731233639 161.41081889854792 -8.311776090578554 11.907415755297455 -17.398362019591282 16.168333053084424 -8.087381131348595 32.6229432867322 148.0498196692975 6.3611093629270335e-15 42.014041323730616 0.0 0.0 0.0 14.963049478993172 17.674890643957138 15.255052867562952 -29.06196027288002 -13.804719299551346 -38.043253684868006 94.59143523427508 -6.3611093629270335e-15 -73.53297477781027 0.0 0.0 0.0 0.01753400856949269 3.210300226680771 0.26528973485444934 0.0 0.0 -3.975693351829396e-16 0.0 0.0 -3.975693351829396e-16 0.0 0.0 -3.975693351829396e-16 0.0 0.0 -3.975693351829396e-16 158.60488770301876 -4.682989506457793 -178.7771179866395 136.08101133248127 -2.2706375417907993e-14 -1.1727323742479032e-14 -179.99999999999991 87.91201204695386 179.99999999999991 0.0 0.0 0.0 160.84697276535397 3.8262799677649126 -177.21029681554978 -54.016730062654396 -4.986460497379973e-15 1.028239961112686e-15 -180.0 -8.682456649209922 -180.0 3.1805546814635168e-15 0.0 0.0 -11.52392000475224 4.093964914963177e-15 8.126920747357557e-16 -3.975693351829396e-16 0.0 0.0
45.98103332519531 -9.674007466435432 430.0942193984986 162.94702127665957 -82.80207734745584 160.4109034798361 -8.256633454778473 11.828147138707841 -17.22486542080589 16.330681908793547 -8.22393657118321 32.98007415486195 162.37854765464056 -1.4312496066585827e-14 38.69809040291871 0.0 0.0 0.0 14.90666952465313 17.643866239024867 15.19539401907961 -29.48837302970345 -14.05624166522051 -37.75465672289358 95.0116778401771 6.3611093629270335e-15 -74.06861020457193 0.0 0.0 0.0 0.011330235372514706 3.1965806793548093 0.258396879821057 0.0 0.0 0.0 0.0 0.0 0.0 0.0 0.0 0.0 0.0 0.0 0.0 154.25930367515554 -10.427575530005845 179.61775569342882 121.68630981112719 2.1445568178334736e-14 1.3785353994828312e-14 5.246317487733618e-15 55.578016966088185 -9.955155195031176e-15 0.0 0.0 0.0 160.73083443381273 3.7178299363136476 -177.13923941786283 -60.116193313940975 1.9741341570301654e-14 1.5099115586627582e-14 -180.0 -9.126235055791284 180.0 3.1805546814635168e-15 0.0 0.0 -11.129675743909651 1.4008166297223262e-14 1.3648338464305792e-15 1.1927080055488192e-15 8.276074308844047e-33 7.951386703658794e-16
46.04707281589508 -9.585759973526 430.1361808776856 161.444288752141 -82.71437294195859 158.88687412820403 -8.091373346186629 11.654524048339725 -17.109246381783056 16.477015795960686 -8.348094802706186 33.14983576023428 163.86078065112807 -1.1131941385122309e-14 38.9729054816473 0.0 0.0 0.0 14.755737132429337 17.530864255161724 15.12770182333898 -29.711945897263007 -14.240898074046319 -37.29102913949575 95.53840561968177 1.2722218725854067e-14 -74.5258593449764 6.3611093629270335e-15 0.0 0.0 0.006006129530916768 3.1667464928019666 0.23416028814423726 0.0 0.0 -3.975693351829396e-16 0.0 0.0 -3.975693351829396e-16 0.0 0.0 -3.975693351829396e-16 0.0 0.0 -3.975693351829396e-16 157.2715617525893 -12.645927313000653 176.87794787039857 105.48187580087274 -1.2051264519231333e-14 -5.170860748247564e-15 -1.6278822825507008e-14 81.48739470915824 1.4023611229596516e-14 0.0 0.0 0.0 160.730727304201 4.6337483096341145 -176.34534255864065 -66.19781765076937 -1.0657773056390561e-14 -6.947425622987789e-15 180.0 -11.43889344124193 180.0 -3.1805546814635168e-15 0.0 0.0 -10.527914383531035 -5.752947745175873e-15 -1.3078177091426312e-16 -3.975693351829396e-16 0.0 0.0
46.118048787117004 -9.445468479394911 430.1568231582642 159.36214907895314 -82.61172806715109 156.8041179001418 -7.77213388733934 11.353226462785726 -17.03973647776626 16.493234551310742 -8.413817503966596 33.195534810222895 -175.57661282943397 -1.5505204072134644e-14 36.71699463854897 0.0 0.0 7.951386703658792e-16 14.512300498801626 17.341314389473688 15.037598737959335 -29.71303495578571 -14.356572729283728 -36.70046941937622 96.13641640341206 1.2722218725854067e-14 -74.94013823147878 0.0 0.0 0.0 0.0025425114386753776 3.1244397808908144 0.19747339021551155 0.0 0.0 0.0 0.0 0.0 0.0 0.0 0.0 0.0 0.0 0.0 0.0 161.5678806648176 -12.609406806209567 173.86980725961791 90.65523029969765 -5.1438327314863383e-17 -8.995820071161883e-15 -180.0 32.38346160938044 180.0 0.0 0.0 0.0 160.8835097045058 4.3713875570256695 -175.2726313236403 -78.29030565619712 -9.242699282037945e-15 -1.5725511344518936e-14 180.0 -14.74607791706707 180.0 0.0 0.0 0.0 -9.76257865208943 8.076648156912578e-15 -5.072933850044148e-16 -3.975693351829396e-16 0.0 0.0
46.19494779109955 -9.25982301235199 430.1550973892212 156.865962244777 -82.4887610441877 154.3319697012645 -7.323768597943101 10.950519605026939 -17.014517826051947 16.380419578016536 -8.417492142454662 33.14870924055577 -169.09215853040166 4.373262687012335e-15 37.72731865683949 0.0 0.0 -3.975693351829396e-16 14.219155099490543 17.119919770131844 14.918114120029559 -29.692675773378564 -14.485658592548312 -36.08449542996421 96.89518283333244 -9.54166404439055e-15 -75.45495555740334 0.0 0.0 0.0 0.0008074965616760575 3.071121391886099 0.1553429979475718 0.0 0.0 0.0 0.0 0.0 0.0 0.0 0.0 0.0 0.0 0.0 0.0 166.84166941535764 -11.610361542338568 170.9096777252395 77.70443442962643 -7.705776281554172e-15 -1.9610105582987e-15 180.0 10.980870019061573 180.0 6.3611093629270335e-15 0.0 0.0 161.05678348912207 3.638585472788166 -174.04586844708612 -90.77133204613925 -2.634133347475747e-15 1.5444437797056477e-14 180.0 -21.982729771621806 180.0 3.1805546814635176e-15 -3.1805546814635176e-15 -3.1805546814635176e-15 -8.835470615303917 3.068567308028083e-15 -1.6168517508189752e-16 3.975693351829396e-16 0.0 0.0
46.28141477108002 -9.029993417859078 430.1269346237183 154.17245244093058 -82.34709894389204 151.6854251042241 -6.766752242085344 10.460084862677997 -17.010904835159405 16.15694209074078 -8.365360163711781 33.03356660467282 -164.73083777185235 1.6697912077683464e-14 39.08125930928315 0.0 0.0 1.1430118386509513e-15 13.780272754417394 16.786783834447625 14.584661923195117 -29.549864516114425 -14.710963511805154 -35.01258779411721 97.70934235859562 1.2722218725854067e-14 -76.06104735816122 0.0 0.0 0.0 -0.0002509866413405522 3.011885026222506 0.11356916129883807 0.0 0.0 3.975693351829396e-16 0.0 0.0 3.975693351829396e-16 0.0 0.0 3.975693351829396e-16 0.0 0.0 3.975693351829396e-16 173.75419256915634 -9.421135394708374 167.99507110171973 68.26538499340874 6.531048362380837e-15 3.2576204649809543e-15 -180.0 10.825252965530558 180.0 -6.3611093629270335e-15 -3.531125038440127e-31 6.3611093629270335e-15 170.04260812828227 3.7773482463171106 -173.79386361316497 -97.0829914846679 4.898851503903444e-15 -4.062570813400105e-15 -5.615611707400434e-14 -87.33500340580589 -7.380141801224329e-14 0.0 0.0 7.454425034680117e-17 -7.862825570199865 1.6737636091262393e-14 1.1502770672801872e-15 1.987846675914698e-16 0.0 0.0
46.37249929904938 -8.79047264456749 430.0752954483033 151.57086841751632 -82.20153159655437 149.14655976006475 -6.166000350070166 9.935225084508428 -17.023498085821018 15.873711480002477 -8.278847525473953 32.89945902881893 -163.0378075336147 2.4649298781342254e-14 38.761224378375154 0.0 0.0 -1.987846675914698e-16 13.318261698782466 16.442107215450374 14.192330539843333 -29.18312714717624 -14.873480869427707 -33.85074920606568 98.62732447026379 0.0 -76.68437870806324 0.0 0.0 0.0 -0.0010429314918042202 2.9517113479846304 0.07744912715421158 -3.975693351829396e-16 0.0 0.0 -3.975693351829396e-16 0.0 0.0 -3.975693351829396e-16 0.0 0.0 -3.975693351829396e-16 0.0 0.0 -174.08289744567375 -6.763553022292724 166.99491027281658 65.61880329614485 -1.233010927360991e-15 -6.773537404733171e-15 180.0 69.98611997946115 -179.99999999999997 0.0 0.0 0.0 179.47826406992536 4.245250246747957 -173.73077318920053 -101.65616436712659 3.835966693588215e-15 -1.543319673852987e-14 1.0513153175695862e-14 -49.227695228625734 1.5311687122778768e-14 0.0 0.0 -1.5902773407317584e-15 -6.540950407971805 -4.766545017826142e-15 -2.350400118746848e-16 -1.2424041724466862e-17 1.3470173028717525e-36 -1.2424041724466862e-17
